<?xml version="1.0" encoding="UTF-8" standalone="no"?> <!-- Created with Vectornator for iOS (http://vectornator.io/) --><!DOCTYPE svg PUBLIC "-//W3C//DTD SVG 1.1//EN" "http://www.w3.org/Graphics/SVG/1.1/DTD/svg11.dtd">
<svg style="fill-rule:evenodd;clip-rule:evenodd;stroke-linecap:round;stroke-linejoin:round;" xmlns:vectornator="http://vectornator.io" xmlns:xlink="http://www.w3.org/1999/xlink" xmlns="http://www.w3.org/2000/svg" xml:space="preserve" version="1.1" viewBox="0 0 1024 1024">
<metadata>
<vectornator:setting key="DimensionsVisible" value="0"/>
<vectornator:setting key="Units" value="Pixels"/>
<vectornator:setting key="IsolateActiveLayer" value="0"/>
<vectornator:setting key="New" value="1"/>
<vectornator:setting key="SnapToPoints" value="0"/>
<vectornator:setting key="OutlineMode" value="0"/>
<vectornator:setting key="RulersVisible" value="0"/>
<vectornator:setting key="GuidesVisible" value="1"/>
<vectornator:setting key="SnapToEdges" value="0"/>
<vectornator:setting key="CMYKEnabledKey" value="0"/>
<vectornator:setting key="DisplayWhiteBackground" value="0"/>
<vectornator:setting key="doHistoryDisabled" value="0"/>
<vectornator:setting key="SnapToGuides" value="1"/>
<vectornator:setting key="GridSpacing" value="48"/>
<vectornator:setting key="DynamicGuides" value="0"/>
<vectornator:setting key="GridSpacing" value="28.35000038146973"/>
<vectornator:setting key="Units" value="Millimeters"/>
<vectornator:setting key="SnapToGrid" value="1"/>
</metadata>
<defs/>
<g id="レイヤー 1" vectornator:layerName="レイヤー 1">
<path stroke="#736cff" stroke-width="44.62" d="M516.539+145C275.598+145+80.2784+337.518+80.2783+575C80.2783+812.482+275.598+1005+516.539+1005C757.48+1005+952.799+812.482+952.799+575C952.799+337.518+757.48+145+516.539+145Z" fill="#ffffff" stroke-linecap="round" opacity="1" stroke-linejoin="bevel"/>
<path stroke="#736cff" stroke-width="44.62" d="M260.278+299C260.278+160.929+375.01+49+516.539+49C658.068+49+772.799+160.929+772.799+299C772.799+437.071+658.068+549+516.539+549C415.03+549+327.305+491.421+285.811+407.915C269.452+374.993+260.278+338.042+260.278+299Z" fill="#ffffff" stroke-linecap="round" opacity="1" stroke-linejoin="bevel"/>
<path stroke="#736cff" stroke-width="44.62" d="M516.539+419.767L516.539+674.329L516.539+740.231L516.539+811.47" fill="#ffffff" stroke-linecap="round" opacity="1" stroke-linejoin="bevel"/>
<g opacity="1">
<path stroke="#736cff" stroke-width="44.62" d="M435.436+419.767L435.436+419.767" fill="#ffffff" stroke-linecap="round" opacity="1" stroke-linejoin="bevel"/>
<path stroke="#736cff" stroke-width="44.62" d="M597.642+419.767L597.642+419.767" fill="#ffffff" stroke-linecap="round" opacity="1" stroke-linejoin="bevel"/>
</g>
<g opacity="1">
<path stroke="#736cff" stroke-width="44.62" d="M635.461+743.786L705.437+797.946L728.762+816L820.676+742.695" fill="none" stroke-linecap="round" opacity="1" stroke-linejoin="miter"/>
<path stroke="#736cff" stroke-width="44.62" d="M728.572+816L727.565+693.218" fill="none" stroke-linecap="round" opacity="1" stroke-linejoin="miter"/>
<path stroke="#736cff" stroke-width="44.62" d="M212.402+740.913L285.399+795.073L309.732+813.127L405.614+739.822" fill="none" stroke-linecap="round" opacity="1" stroke-linejoin="miter"/>
<path stroke="#736cff" stroke-width="44.62" d="M309.533+813.127L308.482+690.345" fill="none" stroke-linecap="round" opacity="1" stroke-linejoin="miter"/>
</g>
</g>
</svg>
